<svg width="55" height="55" viewBox="0 0 55 55" fill="none" xmlns="http://www.w3.org/2000/svg">
<path fill-rule="evenodd" clip-rule="evenodd" d="M27.5 55C42.6878 55 55 42.6878 55 27.5C55 12.3122 42.6878 0 27.5 0C12.3122 0 0 12.3122 0 27.5C0 42.6878 12.3122 55 27.5 55Z" fill="#5454D4" fill-opacity="0.1"/>
<path fill-rule="evenodd" clip-rule="evenodd" d="M22.5 17H33.5C34.88 17.0016 35.9983 18.0713 36 19.3913V36.6087C35.9983 37.9287 34.88 38.9984 33.5 39H22.5C21.12 38.9984 20.0017 37.9287 20 36.6087V19.3913C20.0017 18.0713 21.12 17.0016 22.5 17ZM34.5 35.6522C34.7761 35.6522 35 35.438 35 35.1739V19.8696C35 19.6054 34.7761 19.3913 34.5 19.3913H21.5C21.2239 19.3913 21 19.6054 21 19.8696V35.1739C21 35.438 21.2239 35.6522 21.5 35.6522H34.5Z" fill="#5454D4"/>
</svg>
