<svg width="55" height="55" viewBox="0 0 55 55" fill="none" xmlns="http://www.w3.org/2000/svg">
<path fill-rule="evenodd" clip-rule="evenodd" d="M27.5 55C42.6878 55 55 42.6878 55 27.5C55 12.3122 42.6878 0 27.5 0C12.3122 0 0 12.3122 0 27.5C0 42.6878 12.3122 55 27.5 55Z" fill="#F04037" fill-opacity="0.097195"/>
<path d="M38.6432 24.1384L30.6629 22V32.1634C30.6629 32.9596 30.0116 33.605 29.2082 33.605H23.5075L23.0173 35.383C22.9832 35.5059 22.9999 35.6372 23.0636 35.748C23.1272 35.8587 23.2327 35.9399 23.3567 35.9736L34.5917 38.9837C34.633 38.9945 34.6756 39 34.7183 39C34.9375 39.0001 35.1295 38.8546 35.1867 38.6449L38.9831 24.728C39.0168 24.6049 38.9997 24.4736 38.9355 24.363C38.8714 24.2524 38.7655 24.1716 38.6413 24.1384H38.6432Z" fill="#F04037"/>
<rect x="17" y="17" width="12" height="15" rx="1" fill="#F04037"/>
</svg>
